<?xml version="1.0" encoding="UTF-8" standalone="no"?>
<svg
   xmlns:dc="http://purl.org/dc/elements/1.1/"
   xmlns:cc="http://creativecommons.org/ns#"
   xmlns:rdf="http://www.w3.org/1999/02/22-rdf-syntax-ns#"
   xmlns:svg="http://www.w3.org/2000/svg"
   xmlns="http://www.w3.org/2000/svg"
   xmlns:sodipodi="http://sodipodi.sourceforge.net/DTD/sodipodi-0.dtd"
   xmlns:inkscape="http://www.inkscape.org/namespaces/inkscape"
   version="1.1"
   id="svg2"
   xml:space="preserve"
   width="933.33331"
   height="666.66669"
   viewBox="0 0 933.33331 666.66669"
   sodipodi:docname="vertical.ai"><metadata
     id="metadata8"><rdf:RDF><cc:Work
         rdf:about=""><dc:format>image/svg+xml</dc:format><dc:type
           rdf:resource="http://purl.org/dc/dcmitype/StillImage" /></cc:Work></rdf:RDF></metadata><defs
     id="defs6" /><sodipodi:namedview
     pagecolor="#ffffff"
     bordercolor="#666666"
     borderopacity="1"
     objecttolerance="10"
     gridtolerance="10"
     guidetolerance="10"
     inkscape:pageopacity="0"
     inkscape:pageshadow="2"
     inkscape:window-width="640"
     inkscape:window-height="480"
     id="namedview4" /><g
     id="g10"
     inkscape:groupmode="layer"
     inkscape:label="vertical"
     transform="matrix(1.3333333,0,0,-1.3333333,0,666.66667)"><g
       id="g12" /><g
       id="g14"><path
         d="M 537.6714,383.8905 H 488.225 l -75.1328,-57.1523 -19.9069,12.5221 h -47.1988 l 43.0247,-31.1448 -33.0713,-28.255 c -12.8432,-10.7027 -23.2248,-18.1946 -31.1447,-22.4757 -14.3416,-7.9199 -29.2183,-11.8799 -44.6302,-11.8799 -20.3351,0 -35.1048,5.1373 -44.3091,15.4118 l 161.5034,122.9738 h -97.6084 c -28.8972,0 -51.4799,-7.5989 -67.7479,-22.7967 -15.1978,-13.9135 -22.7967,-32.001 -22.7967,-54.2626 0,-10.4886 1.3913,-18.9437 4.174,-25.3653 l -67.1058,-49.7675 h 51.3729 l 31.1447,23.76 c 5.9935,-7.4919 14.3416,-13.8065 25.0443,-18.9438 11.5589,-5.5654 23.4389,-8.3481 35.6399,-8.3481 29.1113,-0.214 60.042,12.5222 92.7922,38.2086 l 30.5027,24.081 79.3068,-58.7577 h 55.5469 l -109.8095,77.0593 99.856,75.1328 M 319.3368,356.9197 c -4.2811,-1.9264 -10.9167,-6.2075 -19.907,-12.8432 l -78.9857,-57.1523 c -1.2844,3.4249 -1.9265,9.0973 -1.9265,17.0173 0,15.4118 5.5654,27.7199 16.6962,36.9242 12.8432,10.7027 31.6799,16.054 56.5101,16.054 z"
         style="fill:#ffcf01;fill-opacity:1;fill-rule:nonzero;stroke:none"
         id="path16" /><path
         d="m 227.1868,167.1613 -14.4486,20.5491 h -23.1178 l 25.6865,-34.3556 -26.6497,-35.3188 h 22.4756 l 15.4119,21.5124 15.4118,-21.5124 h 23.4389 l -26.9708,35.6399 25.6865,34.0345 h -22.7967 z"
         style="fill:#000000;fill-opacity:1;fill-rule:nonzero;stroke:none"
         id="path18" /><path
         d="m 465.4284,166.8402 v -0.3211 c 0,-6.2075 2.2476,-11.1307 6.7427,-14.7697 3.2108,-2.3545 8.027,-4.4951 14.4486,-6.4216 5.3514,-1.4983 8.7762,-2.5686 10.2746,-3.2108 2.9967,-1.2843 4.4951,-2.8897 4.4951,-4.8162 v -0.321 c 0,-3.639 -2.7827,-5.4584 -8.3481,-5.4584 -3.4248,0 -7.5989,0.8562 -12.5221,2.5686 -5.1373,1.7125 -9.6324,3.96 -13.4854,6.7427 l -5.4583,-15.4118 c 7.9199,-5.9935 18.1945,-8.9903 30.8237,-8.9903 8.134,0 14.6626,1.8195 19.5859,5.4584 5.1373,3.8529 7.7059,9.5254 7.7059,17.0172 v 0.3211 c 0,5.7795 -2.3546,10.4886 -7.0638,14.1276 -3.2108,2.3545 -8.027,4.6021 -14.4486,6.7426 -5.3513,1.7125 -8.6692,2.8898 -9.9535,3.5319 -2.9967,1.4984 -4.4951,3.1038 -4.4951,4.8162 v 0.3211 c 0,3.2108 2.4616,4.8162 7.3848,4.8162 6.8498,0 13.9135,-2.1405 21.1913,-6.4216 l 4.1741,14.7697 c -7.0638,4.7092 -15.4119,7.0638 -25.0443,7.0638 -7.4918,0 -13.5924,-1.9265 -18.3016,-5.7795 -5.1372,-4.067 -7.7059,-9.5254 -7.7059,-16.3751 z"
         style="fill:#000000;fill-opacity:1;fill-rule:nonzero;stroke:none"
         id="path20" /><path
         d="m 584.8702,167.1613 3.853,14.7697 c -7.0638,4.7092 -15.3048,7.0638 -24.7232,7.0638 -7.4919,0 -13.6994,-1.9265 -18.6226,-5.7795 -5.1373,-4.067 -7.706,-9.5254 -7.706,-16.3751 v -0.3211 c 0,-6.2075 2.3546,-11.1307 7.0638,-14.7697 3.2108,-2.3545 8.027,-4.4951 14.4486,-6.4216 5.5654,-1.7124 8.9903,-2.7827 10.2746,-3.2108 2.9967,-1.2843 4.4951,-2.8897 4.4951,-4.8162 v -0.321 c 0,-3.639 -2.7827,-5.4584 -8.3481,-5.4584 -3.6389,0 -7.8129,0.8562 -12.5221,2.5686 -5.3514,1.7125 -9.8465,3.96 -13.4854,6.7427 l -5.4584,-15.4118 c 7.92,-5.9935 18.1946,-8.9903 30.8238,-8.9903 8.134,0 14.6626,1.8195 19.5859,5.4584 5.1372,3.8529 7.7059,9.5254 7.7059,17.0172 v 0.3211 c 0,5.7795 -2.3546,10.4886 -7.0638,14.1276 -3.2108,2.3545 -8.027,4.6021 -14.4486,6.7426 -5.5654,1.9265 -8.9902,3.1038 -10.2746,3.5319 -2.9967,1.4984 -4.4951,3.1038 -4.4951,4.8162 v 0.3211 c 0,3.2108 2.5686,4.8162 7.7059,4.8162 6.6357,0 13.6995,-2.1405 21.1913,-6.4216 z"
         style="fill:#000000;fill-opacity:1;fill-rule:nonzero;stroke:none"
         id="path22" /><path
         d="m 313.5574,184.4995 c -2.1405,-1.4983 -5.0302,-4.174 -8.6692,-8.027 v 11.2378 H 284.018 v -69.6744 h 20.8702 v 43.6669 c 4.7092,5.9935 10.3816,8.9903 17.0173,8.9903 2.9968,0 5.3513,-1.1773 7.0638,-3.5319 1.9264,-2.3546 2.8897,-5.6724 2.8897,-9.9535 v -39.1718 h 20.228 v 40.7772 c 0,20.1211 -8.134,30.1816 -24.4021,30.1816 -5.1372,0 -9.8464,-1.4984 -14.1275,-4.4952 z"
         style="fill:#000000;fill-opacity:1;fill-rule:nonzero;stroke:none"
         id="path24" /><path
         d="m 170.9977,177.7569 c -6.2075,7.4919 -15.1978,11.2378 -26.9707,11.2378 -10.7027,0 -19.2648,-3.2108 -25.6864,-9.6324 -7.0638,-7.0637 -10.5957,-16.054 -10.5957,-26.9707 0,-11.1308 3.6389,-20.014 10.9168,-26.6497 6.8497,-6.4216 15.6259,-9.6324 26.3285,-9.6324 16.2681,0 27.0778,6.6357 32.4291,19.907 l -16.375,4.174 c -3.4249,-5.9935 -8.7762,-8.9902 -16.0541,-8.9902 -5.9935,0 -10.5956,2.1405 -13.8064,6.4216 -2.1406,2.9967 -3.2108,6.8497 -3.2108,11.5589 h 51.0517 v 1.6054 c 0,11.3448 -2.6756,20.3351 -8.027,26.9707 m -36.6031,-5.7794 c 2.9967,2.3546 6.4216,3.5319 10.2746,3.5319 3.8529,0 7.2778,-1.1773 10.2745,-3.5319 3.2108,-2.5687 5.2443,-5.9935 6.1006,-10.2746 h -32.7502 c 0.8562,4.2811 2.8897,7.706 6.1005,10.2746 z"
         style="fill:#000000;fill-opacity:1;fill-rule:nonzero;stroke:none"
         id="path26" /><path
         d="m 435.5678,177.7569 c -6.2075,7.4919 -15.0907,11.2378 -26.6496,11.2378 -10.9168,0 -19.5859,-3.2108 -26.0075,-9.6324 -6.8497,-6.8497 -10.2746,-15.8399 -10.2746,-26.9707 0,-10.9167 3.5319,-19.8 10.5956,-26.6497 6.8498,-6.4216 15.626,-9.6324 26.3286,-9.6324 15.6259,0 26.5427,6.6357 32.7502,19.907 l -16.6962,4.174 c -3.4248,-5.9935 -8.7761,-8.9902 -16.054,-8.9902 -5.3513,0 -9.9535,2.1405 -13.8064,6.4216 -2.1406,2.9967 -3.2108,6.8497 -3.2108,11.5589 h 51.3728 v 1.6054 c 0,11.3448 -2.7827,20.3351 -8.3481,26.9707 m -36.282,-5.7794 c 2.9967,2.3546 6.3145,3.5319 9.9535,3.5319 3.8529,0 7.2778,-1.1773 10.2745,-3.5319 3.2108,-2.5687 5.2443,-5.9935 6.1005,-10.2746 h -32.4291 c 0.8562,4.2811 2.8898,7.706 6.1006,10.2746 z"
         style="fill:#000000;fill-opacity:1;fill-rule:nonzero;stroke:none"
         id="path28" /></g></g></svg>
