<?xml version="1.0" encoding="utf-8"?>
<!-- Generator: Adobe Illustrator 27.8.0, SVG Export Plug-In . SVG Version: 6.00 Build 0)  -->
<svg version="1.1" id="Layer_1" xmlns="http://www.w3.org/2000/svg" xmlns:xlink="http://www.w3.org/1999/xlink" x="0px" y="0px"
	 viewBox="0 0 361.47 180.25" style="enable-background:new 0 0 361.47 180.25;" xml:space="preserve">
<style type="text/css">
	.st0{fill:#070E20;}
</style>
<g>
	<path class="st0" d="M32.86,105.74c1.73,6.29,4.44,12.09,8.13,17.41c3.69,5.32,8.02,9.92,13.01,13.83
		c4.99,3.9,10.57,6.94,16.76,9.11c6.18,2.17,12.63,3.25,19.36,3.25c10.19,0,19.08-2.12,26.68-6.34c7.59-4.23,13.67-9.05,18.22-14.48
		h36.77c-3.47,7.38-7.97,14.21-13.5,20.5c-5.53,6.29-11.82,11.77-18.87,16.43c-7.05,4.67-14.75,8.3-23.1,10.9
		c-8.35,2.6-17.08,3.9-26.19,3.9c-12.36,0-24.03-2.39-34.98-7.16c-10.96-4.77-20.5-11.22-28.63-19.36
		c-8.13-8.13-14.59-17.68-19.36-28.63C2.38,114.15,0,102.49,0,90.12C0,77.76,2.38,66.1,7.16,55.15
		c4.77-10.95,11.22-20.5,19.36-28.63c8.13-8.13,17.68-14.58,28.63-19.36C66.1,2.39,77.76,0,90.12,0c12.36,0,24.02,2.39,34.98,7.16
		c10.95,4.77,20.5,11.22,28.63,19.36c8.13,8.13,14.59,17.68,19.36,28.63c4.77,10.96,7.16,22.61,7.16,34.98
		c0,2.82-0.11,5.53-0.33,8.13c-0.22,2.6-0.54,5.1-0.98,7.48H32.86z M147.39,74.83c-1.74-6.29-4.39-12.15-7.97-17.57
		c-3.58-5.42-7.92-10.09-13.01-13.99c-5.1-3.9-10.69-6.94-16.76-9.11c-6.07-2.17-12.58-3.25-19.52-3.25
		c-6.73,0-13.18,1.14-19.36,3.42c-6.18,2.28-11.82,5.37-16.92,9.27c-5.1,3.9-9.44,8.52-13.01,13.83
		c-3.58,5.32-6.24,11.12-7.97,17.41H147.39z"/>
	<path class="st0" d="M185.77,21.47L207.9,0l65.72,68l65.72-68l22.12,21.47l-66.37,68.65l66.37,68.65l-22.12,21.47l-65.72-68
		l-65.72,68l-22.12-21.47l66.37-68.65L185.77,21.47z"/>
</g>
</svg>
