<?xml version="1.0" encoding="utf-8"?>
<!-- Generator: Adobe Illustrator 27.8.0, SVG Export Plug-In . SVG Version: 6.00 Build 0)  -->
<svg width="122" height="40" viewBox="0 0 122 40" fill="none" xmlns="http://www.w3.org/2000/svg" id="logo">
<path d="M3.64585 21.2975C3.83779 21.9954 4.13847 22.6389 4.54788 23.2292C4.95729 23.8194 5.4377 24.3298 5.99135 24.7636C6.54499 25.1963 7.1641 25.5336 7.85088 25.7744C8.53656 26.0151 9.25219 26.135 9.99889 26.135C11.1295 26.135 12.1158 25.8997 12.9591 25.4315C13.8012 24.9622 14.4758 24.4274 14.9806 23.825H19.0602C18.6752 24.6438 18.176 25.4016 17.5624 26.0995C16.9489 26.7973 16.251 27.4054 15.4688 27.9224C14.6866 28.4405 13.8322 28.8433 12.9058 29.1317C11.9794 29.4202 11.0108 29.5645 10 29.5645C8.62865 29.5645 7.33385 29.2993 6.11894 28.77C4.90292 28.2408 3.84445 27.5252 2.94242 26.622C2.04039 25.72 1.32364 24.6604 0.794408 23.4455C0.265173 22.2306 0 20.9369 0 19.5645C0 18.1931 0.264063 16.8994 0.794408 15.6834C1.32364 14.4685 2.03928 13.4089 2.94242 12.5069C3.84445 11.6048 4.90403 10.8892 6.11894 10.3589C7.33385 9.82963 8.62754 9.56445 10 9.56445C11.3714 9.56445 12.665 9.82963 13.8811 10.3589C15.096 10.8881 16.1556 11.6037 17.0576 12.5069C17.9596 13.4089 18.6764 14.4685 19.2056 15.6834C19.7348 16.8994 20 18.192 20 19.5645C20 19.8773 19.9878 20.178 19.9634 20.4665C19.939 20.755 19.9035 21.0323 19.8547 21.2964H3.64585V21.2975ZM16.3519 17.868C16.1589 17.1701 15.8649 16.52 15.4677 15.9186C15.0705 15.3173 14.5889 14.7991 14.0242 14.3664C13.4583 13.9337 12.8381 13.5964 12.1647 13.3556C11.4912 13.1149 10.7689 12.9951 9.99889 12.9951C9.25219 12.9951 8.53656 13.1215 7.85088 13.3745C7.16521 13.6275 6.53944 13.9703 5.97359 14.403C5.40774 14.8357 4.92622 15.3483 4.53012 15.9375C4.13292 16.5277 3.83779 17.1712 3.64585 17.8691H16.3519V17.868Z" fill="currentColor"/>
<path d="M20.6112 11.9477L23.0655 9.56554L30.3571 17.1102L37.6488 9.56554L40.1031 11.9477L32.7404 19.5644L40.1042 27.1812L37.6499 29.5633L30.3582 22.0187L23.0666 29.5633L20.6123 27.1812L27.975 19.5644L20.6112 11.9477Z" fill="currentColor"/>
<path d="M42.2345 19.0585C42.2345 17.7593 42.4808 16.5311 42.9745 15.3761C43.4672 14.2211 44.1473 13.2103 45.0138 12.3438C45.8803 11.4772 46.8911 10.7982 48.0461 10.3045C49.2011 9.81187 50.4282 9.56445 51.7286 9.56445C53.0289 9.56445 54.2549 9.81187 55.411 10.3045C56.566 10.7982 57.5768 11.4772 58.4433 12.3438C59.3098 13.2103 59.9889 14.2211 60.4826 15.3761C60.9752 16.5311 61.2226 17.7582 61.2226 19.0585V28.9853H57.4681V18.8777C57.4681 18.0833 57.3172 17.3377 57.0165 16.6398C56.7158 15.9419 56.3064 15.335 55.7894 14.8169C55.2712 14.2998 54.6643 13.8904 53.9664 13.5897C53.2686 13.2891 52.523 13.1382 51.7286 13.1382C50.9341 13.1382 50.1886 13.2891 49.4907 13.5897C48.7928 13.8904 48.1848 14.2998 47.6678 14.8169C47.1496 15.335 46.7413 15.9419 46.4406 16.6398C46.14 17.3377 45.9891 18.0833 45.9891 18.8777V28.9853H42.2345V19.0585Z" fill="currentColor"/>
<path d="M67.4671 21.2975C67.6591 21.9954 67.9597 22.6389 68.3691 23.2292C68.7786 23.8194 69.259 24.3298 69.8126 24.7636C70.3663 25.1963 70.9854 25.5336 71.6722 25.7744C72.3578 26.0151 73.0735 26.135 73.8202 26.135C74.9508 26.135 75.9371 25.8997 76.7803 25.4315C77.6225 24.9622 78.297 24.4274 78.8019 23.825H82.8815C82.4965 24.6438 81.9972 25.4016 81.3837 26.0995C80.7701 26.7973 80.0723 27.4054 79.29 27.9224C78.5078 28.4405 77.6535 28.8433 76.7271 29.1317C75.8006 29.4202 74.832 29.5645 73.8213 29.5645C72.4499 29.5645 71.1551 29.2993 69.9402 28.77C68.7242 28.2408 67.6657 27.5252 66.7637 26.622C65.8617 25.72 65.1449 24.6604 64.6157 23.4455C64.0865 22.2306 63.8213 20.9369 63.8213 19.5645C63.8213 18.1931 64.0853 16.8994 64.6157 15.6834C65.1449 14.4685 65.8606 13.4089 66.7637 12.5069C67.6657 11.6048 68.7253 10.8892 69.9402 10.3589C71.1551 9.82963 72.4488 9.56445 73.8213 9.56445C75.1926 9.56445 76.4863 9.82963 77.7023 10.3589C78.9173 10.8881 79.9768 11.6037 80.8789 12.5069C81.7809 13.4089 82.4976 14.4685 83.0269 15.6834C83.5561 16.8994 83.8213 18.192 83.8213 19.5645C83.8213 19.8773 83.8091 20.178 83.7847 20.4665C83.7603 20.755 83.7248 21.0323 83.6759 21.2964H67.4671V21.2975ZM80.1732 17.868C79.9802 17.1701 79.6861 16.52 79.2889 15.9186C78.8917 15.3173 78.4102 14.7991 77.8455 14.3664C77.2796 13.9337 76.6594 13.5964 75.9859 13.3556C75.3125 13.1149 74.5902 12.9951 73.8202 12.9951C73.0735 12.9951 72.3578 13.1215 71.6722 13.3745C70.9865 13.6275 70.3607 13.9703 69.7949 14.403C69.229 14.8357 68.7475 15.3483 68.3514 15.9375C67.9542 16.5277 67.6591 17.1712 67.4671 17.8691H80.1732V17.868Z" fill="currentColor"/>
<path d="M94.3594 29.5633C92.1692 29.5633 90.2742 29.0518 88.6743 28.0289C87.0732 27.0059 85.9493 25.6046 85.2992 23.8238H89.3056C89.8115 24.5938 90.515 25.1896 91.417 25.6112C92.319 26.0329 93.2876 26.2426 94.3228 26.2426C95.5743 26.2426 96.5429 26.0207 97.2286 25.5746C97.9143 25.1297 98.2571 24.5217 98.2571 23.7517C98.2571 23.1259 98.0097 22.6455 97.5171 22.3082C97.0233 21.9709 96.199 21.6947 95.044 21.4783L92.228 20.9369C90.0135 20.5275 88.4013 19.8784 87.3906 18.9875C86.3798 18.0977 85.8739 16.8938 85.8739 15.3771C85.8739 14.535 86.0603 13.7584 86.4331 13.0483C86.8059 12.3382 87.3229 11.7246 87.9853 11.2076C88.6465 10.6906 89.4343 10.2867 90.3496 9.99825C91.2639 9.70977 92.2746 9.56554 93.3819 9.56554C95.4268 9.56554 97.1964 10.0526 98.6887 11.0279C100.181 12.002 101.227 13.3567 101.83 15.0887H97.8233C97.4139 14.3908 96.8181 13.8493 96.0359 13.4643C95.2537 13.0793 94.3805 12.8863 93.4185 12.8863C92.2635 12.8863 91.3671 13.0971 90.7291 13.5176C90.0911 13.9392 89.7727 14.535 89.7727 15.3039C89.7727 15.8576 90.019 16.3025 90.5127 16.6398C91.0054 16.9771 91.8175 17.2533 92.9492 17.4697L95.7651 18.0111C97.9542 18.4205 99.5674 19.0884 100.603 20.0149C101.637 20.9413 102.155 22.1629 102.155 23.6785C102.155 24.545 101.962 25.3339 101.577 26.0428C101.192 26.7529 100.656 27.3732 99.9702 27.9024C99.2845 28.4316 98.4601 28.841 97.4971 29.1295C96.5374 29.4191 95.4911 29.5633 94.3594 29.5633Z" fill="currentColor"/>
<path d="M112.769 29.5633C110.579 29.5633 108.684 29.0518 107.084 28.0289C105.483 27.0059 104.359 25.6046 103.709 23.8238H107.716C108.221 24.5938 108.925 25.1896 109.827 25.6112C110.729 26.0329 111.698 26.2426 112.733 26.2426C113.984 26.2426 114.953 26.0207 115.639 25.5746C116.324 25.1297 116.667 24.5217 116.667 23.7517C116.667 23.1259 116.42 22.6455 115.927 22.3082C115.433 21.9709 114.609 21.6947 113.454 21.4783L110.638 20.9369C108.423 20.5275 106.811 19.8784 105.8 18.9875C104.79 18.0977 104.284 16.8938 104.284 15.3771C104.284 14.535 104.47 13.7584 104.843 13.0483C105.216 12.3382 105.733 11.7246 106.395 11.2076C107.056 10.6906 107.844 10.2867 108.76 9.99825C109.674 9.70977 110.685 9.56554 111.792 9.56554C113.837 9.56554 115.606 10.0526 117.099 11.0279C118.591 12.002 119.637 13.3567 120.24 15.0887H116.233C115.824 14.3908 115.228 13.8493 114.446 13.4643C113.664 13.0793 112.79 12.8863 111.828 12.8863C110.673 12.8863 109.777 13.0971 109.139 13.5176C108.501 13.9392 108.183 14.535 108.183 15.3039C108.183 15.8576 108.429 16.3025 108.923 16.6398C109.415 16.9771 110.227 17.2533 111.359 17.4697L114.175 18.0111C116.364 18.4205 117.977 19.0884 119.013 20.0149C120.047 20.9413 120.565 22.1629 120.565 23.6785C120.565 24.545 120.372 25.3339 119.987 26.0428C119.602 26.7529 119.066 27.3732 118.38 27.9024C117.694 28.4316 116.87 28.841 115.907 29.1295C114.947 29.4191 113.901 29.5633 112.769 29.5633Z" fill="currentColor"/>
</svg>

